<svg xmlns="http://www.w3.org/2000/svg" viewBox="0 0 1200 360" width="1200" height="360" role="img"><defs><linearGradient id="bg" x1="0" y1="0" x2="1" y2="1"><stop offset="0" stop-color="#07142e"/><stop offset="1" stop-color="#ff6a00"/></linearGradient><radialGradient id="gl" cx="0.5" cy="0.35" r="0.75"><stop offset="0" stop-color="#ffd24a" stop-opacity="0.35"/><stop offset="1" stop-color="#ffd24a" stop-opacity="0"/></radialGradient></defs><rect width="1200" height="360" fill="url(#bg)"/><rect width="1200" height="360" fill="url(#gl)"/><circle cx="1195" cy="123" r="67" fill="#ffd24a" opacity="0.084"/><circle cx="321" cy="175" r="105" fill="#ffd24a" opacity="0.088"/><circle cx="646" cy="319" r="69" fill="#ffd24a" opacity="0.078"/><circle cx="594" cy="57" r="155" fill="#ffd24a" opacity="0.102"/><circle cx="313" cy="-33" r="143" fill="#ffd24a" opacity="0.076"/><circle cx="823" cy="167" r="57" fill="#ffd24a" opacity="0.094"/><circle cx="941" cy="161" r="87" fill="#ffd24a" opacity="0.081"/><line x1="0" y1="207" x2="1200" y2="222" stroke="#ffd24a" stroke-width="1" opacity="0.05"/><line x1="0" y1="206" x2="1200" y2="233" stroke="#ffd24a" stroke-width="1" opacity="0.05"/><line x1="0" y1="134" x2="1200" y2="104" stroke="#ffd24a" stroke-width="1" opacity="0.05"/><rect y="50" width="1200" height="260" fill="#000000" opacity="0.20"/><text x="600" y="148" text-anchor="middle" font-family="&#39;Segoe UI&#39;,&#39;Arial&#39;,sans-serif" font-size="78" font-weight="700" fill="#ffffff" textLength="748.8" lengthAdjust="spacingAndGlyphs">One Click Driver</text><text x="600" y="230.7" text-anchor="middle" font-family="&#39;Segoe UI&#39;,&#39;Arial&#39;,sans-serif" font-size="78" font-weight="700" fill="#ffffff" textLength="842.4" lengthAdjust="spacingAndGlyphs">Updater For Gamers</text><rect x="530" y="252.7" width="140" height="4" rx="2" fill="#ffd24a"/><text x="600" y="290.7" text-anchor="middle" font-family="&#39;Segoe UI&#39;,&#39;Arial&#39;,sans-serif" font-size="28.0" font-weight="400" fill="#ffffff" fill-opacity="0.85" textLength="1050.0" lengthAdjust="spacingAndGlyphs">Updates GPU and system drivers instantly with a single click, keeping g…</text></svg>